<?xml version="1.0" encoding="UTF-8"?>
<svg width="136px" height="97px" viewBox="0 0 136 97" version="1.1" xmlns="http://www.w3.org/2000/svg" xmlns:xlink="http://www.w3.org/1999/xlink">
    <!-- Generator: sketchtool 53.2 (72643) - https://sketchapp.com -->
    <title>0C3663E9-D0FA-4573-AC1D-A955FD7DE22E</title>
    <desc>Created with sketchtool.</desc>
    <defs>
        <linearGradient x1="50%" y1="61.8151456%" x2="50%" y2="93.0553466%" id="linearGradient-1">
            <stop stop-color="#19CD98" offset="0%"></stop>
            <stop stop-color="#000000" offset="81.2711149%"></stop>
            <stop stop-color="#5B7FB7" offset="100%"></stop>
        </linearGradient>
        <linearGradient x1="50%" y1="61.8151456%" x2="50%" y2="93.0553466%" id="linearGradient-2">
            <stop stop-color="#19CD98" offset="0%"></stop>
            <stop stop-color="#000000" offset="81.2711149%"></stop>
            <stop stop-color="#5B7FB7" offset="100%"></stop>
        </linearGradient>
        <linearGradient x1="50%" y1="61.8151456%" x2="50%" y2="93.0553466%" id="linearGradient-3">
            <stop stop-color="#19CD98" offset="0%"></stop>
            <stop stop-color="#000000" offset="81.2711149%"></stop>
            <stop stop-color="#5B7FB7" offset="100%"></stop>
        </linearGradient>
        <linearGradient x1="50%" y1="61.8151456%" x2="50%" y2="93.0553466%" id="linearGradient-4">
            <stop stop-color="#19CD98" offset="0%"></stop>
            <stop stop-color="#000000" offset="81.2711149%"></stop>
            <stop stop-color="#5B7FB7" offset="100%"></stop>
        </linearGradient>
        <linearGradient x1="50%" y1="61.8151456%" x2="50%" y2="93.0553466%" id="linearGradient-5">
            <stop stop-color="#19CD98" offset="0%"></stop>
            <stop stop-color="#000000" offset="81.2711149%"></stop>
            <stop stop-color="#5B7FB7" offset="100%"></stop>
        </linearGradient>
        <linearGradient x1="50%" y1="61.8151456%" x2="50%" y2="93.0553466%" id="linearGradient-6">
            <stop stop-color="#19CD98" offset="0%"></stop>
            <stop stop-color="#000000" offset="81.2711149%"></stop>
            <stop stop-color="#5B7FB7" offset="100%"></stop>
        </linearGradient>
        <path d="M1.46025773,0.377598031 C0.840505155,0.634386965 0.67185567,1.15478979 1.08593814,1.54210599 L1.08593814,1.54210599 C1.49864948,1.92771595 2.33641237,2.03264963 2.95753608,1.77500758 L2.95753608,1.77500758 C3.57728866,1.51821864 3.74456701,0.996962702 3.33185567,0.610499622 L3.33185567,0.610499622 C3.07271134,0.367360599 2.64491753,0.236833333 2.20889691,0.236833333 L2.20889691,0.236833333 C1.95112371,0.236833333 1.69060825,0.282048661 1.46025773,0.377598031" id="path-7"></path>
        <linearGradient x1="100%" y1="50%" x2="0%" y2="50%" id="linearGradient-9">
            <stop stop-color="#528BF7" offset="0%"></stop>
            <stop stop-color="#19CD98" offset="100%"></stop>
        </linearGradient>
        <path d="M0.52514433,0.292073726 C0.0932371134,0.44514314 -0.0260515464,0.755655379 0.263257732,0.985259499 L0.263257732,0.985259499 C0.549824742,1.21486362 1.13392784,1.27754919 1.56720619,1.12447978 L1.56720619,1.12447978 C1.9991134,0.97068146 2.11565979,0.660898123 1.82772165,0.431294003 L1.82772165,0.431294003 C1.64673196,0.286242511 1.34782474,0.20825 1.04480412,0.20825 L1.04480412,0.20825 C0.865185567,0.20825 0.684195876,0.235219373 0.52514433,0.292073726" id="path-10"></path>
        <linearGradient x1="100%" y1="50%" x2="0%" y2="50%" id="linearGradient-12">
            <stop stop-color="#528BF7" offset="0%"></stop>
            <stop stop-color="#19CD98" offset="100%"></stop>
        </linearGradient>
        <linearGradient x1="50%" y1="61.8151456%" x2="50%" y2="93.0553466%" id="linearGradient-13">
            <stop stop-color="#19CD98" offset="0%"></stop>
            <stop stop-color="#000000" offset="81.2711149%"></stop>
            <stop stop-color="#5B7FB7" offset="100%"></stop>
        </linearGradient>
        <linearGradient x1="100%" y1="50%" x2="0%" y2="50%" id="linearGradient-14">
            <stop stop-color="#528BF7" offset="0%"></stop>
            <stop stop-color="#19CD98" offset="100%"></stop>
        </linearGradient>
        <linearGradient x1="50%" y1="61.8151456%" x2="50%" y2="93.0553466%" id="linearGradient-15">
            <stop stop-color="#19CD98" offset="0%"></stop>
            <stop stop-color="#000000" offset="81.2711149%"></stop>
            <stop stop-color="#5B7FB7" offset="100%"></stop>
        </linearGradient>
        <linearGradient x1="50%" y1="61.8151456%" x2="50%" y2="93.0553466%" id="linearGradient-16">
            <stop stop-color="#19CD98" offset="0%"></stop>
            <stop stop-color="#000000" offset="81.2711149%"></stop>
            <stop stop-color="#5B7FB7" offset="100%"></stop>
        </linearGradient>
        <linearGradient x1="100%" y1="50%" x2="0%" y2="50%" id="linearGradient-17">
            <stop stop-color="#19CD98" offset="0%"></stop>
            <stop stop-color="#528BF7" offset="100%"></stop>
        </linearGradient>
        <path d="M1.46815629,0.28493493 C0.77759687,0.740229136 0.59057036,1.66304021 1.04991569,2.3464908 L1.04991569,2.3464908 C1.50926102,3.02892283 2.4402831,3.21429989 3.1298149,2.76002424 L3.1298149,2.76002424 C3.8193467,2.30473003 4.0053456,1.38191896 3.54702788,0.699486925 L3.54702788,0.699486925 C3.25826717,0.268638046 2.78247995,0.0353888889 2.29744417,0.0353888889 L2.29744417,0.0353888889 C2.01176631,0.0353888889 1.7230056,0.11687331 1.46815629,0.28493493" id="path-18"></path>
        <linearGradient x1="100%" y1="50%" x2="0%" y2="50%" id="linearGradient-20">
            <stop stop-color="#19CD98" offset="0%"></stop>
            <stop stop-color="#528BF7" offset="100%"></stop>
        </linearGradient>
        <path d="M1.45065979,0.426922069 C0.899463918,0.638718766 0.748639175,1.06784416 1.11747423,1.3863295 L1.11747423,1.3863295 C1.48356701,1.70481483 2.22946392,1.79095602 2.78065979,1.57915933 L2.78065979,1.57915933 C3.33185567,1.36657234 3.48268041,0.93823723 3.11658763,0.618961612 L3.11658763,0.618961612 C2.88486598,0.419019207 2.50369072,0.31075 2.11428866,0.31075 L2.11428866,0.31075 C1.88668041,0.31075 1.65495876,0.348683737 1.45065979,0.426922069" id="path-21"></path>
    </defs>
    <g id="1st-April-Changes" stroke="none" stroke-width="1" fill="none" fill-rule="evenodd">
        <g id="Textile-Genesis/Final/8th-April-/get-in-touch/-sent" transform="translate(-558.000000, -3286.000000)">
            <g id="Group-17" transform="translate(560.000000, 3287.000000)">
                <g id="Group-99">
                    <path d="M70.3549433,18.5021444 L70.3549433,76.7622" id="Stroke-4" stroke="url(#linearGradient-1)" stroke-width="2.05033354"></path>
                    <path d="M11.4644629,18.5021444 L11.4644629,76.7622" id="Stroke-3" stroke="url(#linearGradient-1)" stroke-width="2.05033354"></path>
                    <g id="Group-49" transform="translate(0.000000, 0.219964)">
                        <path d="M23.6037979,72.1684333 C23.5571794,73.5410202 23.5571794,74.9978013 23.6188804,76.5421" id="Stroke-5" stroke="#6087C2" stroke-width="2.05033354"></path>
                        <path d="M23.4472144,18.2821806 C23.5569052,33.0376237 23.5569052,47.9115363 23.5788433,62.6629861" id="Stroke-7" stroke="url(#linearGradient-2)" stroke-width="2.05033354"></path>
                        <path d="M47.2439309,18.2821806 L47.2439309,76.5422361" id="Stroke-9" stroke="url(#linearGradient-1)" stroke-width="2.05033354"></path>
                        <path d="M59.383266,72.1684333 C59.3380186,73.5410202 59.3380186,74.9978013 59.3997196,76.5421" id="Stroke-11" stroke="#6087C2" stroke-width="2.05033354"></path>
                        <path d="M59.2279165,18.2821806 C59.3376072,33.0376237 59.3376072,47.9115363 59.3595454,62.6629861" id="Stroke-13" stroke="url(#linearGradient-2)" stroke-width="2.05033354"></path>
                        <path d="M35.0737454,72.1684333 C35.0271268,73.5410202 35.0271268,74.9978013 35.090199,76.5421" id="Stroke-15" stroke="#6087C2" stroke-width="2.05033354"></path>
                        <path d="M34.9183959,18.2821806 C35.0267155,33.0376237 35.0267155,47.9115363 35.0500247,62.6629861" id="Stroke-17" stroke="url(#linearGradient-2)" stroke-width="2.05033354"></path>
                        <path d="M81.1258866,72.1684333 C81.079268,73.5410202 81.079268,74.9978013 81.1409691,76.5421" id="Stroke-19" stroke="#6087C2" stroke-width="2.05033354"></path>
                        <path d="M80.969166,18.2821806 C81.0788567,33.0376237 81.0788567,47.9115363 81.1007948,62.6629861" id="Stroke-21" stroke="url(#linearGradient-2)" stroke-width="2.05033354"></path>
                        <path d="M104.765882,18.2821806 L104.765882,76.5422361" id="Stroke-23" stroke="url(#linearGradient-1)" stroke-width="2.05033354"></path>
                        <path d="M92.5956969,72.1684333 C92.5490784,73.5410202 92.5490784,74.9978013 92.6107794,76.5421" id="Stroke-25" stroke="#6087C2" stroke-width="2.05033354"></path>
                        <path d="M92.4391134,18.2821806 C92.5488041,33.0376237 92.5488041,47.9115363 92.5707423,62.6629861" id="Stroke-27" stroke="url(#linearGradient-2)" stroke-width="2.05033354"></path>
                        <polyline id="Stroke-29" stroke="url(#linearGradient-3)" stroke-width="2.05033354" points="104.765882 0.341919444 117.234975 0.341919444 117.234975 13.1993917"></polyline>
                        <polyline id="Stroke-31" stroke="url(#linearGradient-4)" stroke-width="2.05033354" points="104.765882 94.3299167 117.234975 94.3299167 117.234975 81.4738056"></polyline>
                        <polyline id="Stroke-33" stroke="url(#linearGradient-5)" stroke-width="2.05033354" points="0.00274226804 13.3710278 0.00274226804 0.342055556 11.4640515 0.342055556"></polyline>
                        <polyline id="Stroke-35" stroke="url(#linearGradient-6)" stroke-width="2.05033354" points="11.4644629 94.2368167 0.00315360825 94.2368167 0.00315360825 81.5671778"></polyline>
                        <path d="M112.822666,50.0022658 C112.822666,60.2520791 104.228192,68.5585028 93.6274946,68.5585028 C83.0239776,68.5585028 74.4309134,60.2520791 74.4309134,50.0022658 C74.4309134,39.7538153 83.0239776,31.4473917 93.6274946,31.4473917 C104.228192,31.4473917 112.822666,39.7538153 112.822666,50.0022658" id="Fill-37" fill="#111111"></path>
                        <path d="M109.607768,50.3602306 L111.664469,50.3602306" id="Stroke-39" stroke="#528BF7" stroke-width="1.02516677"></path>
                        <path d="M113.442556,50.3602306 L117.887772,50.3602306" id="Stroke-41" stroke="#528BF7" stroke-width="1.02516677" stroke-dasharray="3.545710161620495,1.772855080810248"></path>
                        <path d="M118.777227,50.3602306 L120.833928,50.3602306" id="Stroke-43" stroke="#528BF7" stroke-width="1.02516677"></path>
                        <path d="M109.629158,54.9633722 L111.685859,54.9633722" id="Stroke-45" stroke="#528BF7" stroke-width="1.02516677" stroke-dasharray="3.545710161620495,1.772855080810248"></path>
                        <path d="M113.292691,54.9633722 L115.349392,54.9633722" id="Stroke-47" stroke="#528BF7" stroke-width="1.02516677" stroke-dasharray="3.545710161620495,1.772855080810248"></path>
                    </g>
                    <g id="Group-52" transform="translate(113.804124, 53.664408)">
                        <mask id="mask-8" fill="white">
                            <use xlink:href="#path-7"></use>
                        </mask>
                        <g id="Clip-51"></g>
                        <path d="M2.00374754,0.377598031 C1.54454532,0.634386965 1.41958542,1.15478979 1.72639753,1.54210599 L1.72639753,1.54210599 C2.0321937,1.92771595 2.65292944,2.03264963 3.1131476,1.77500758 L3.1131476,1.77500758 C3.57234982,1.51821864 3.69629378,0.996962702 3.39049761,0.610499622 L3.39049761,0.610499622 C3.19848606,0.367360599 2.88151462,0.236833333 2.55844757,0.236833333 L2.55844757,0.236833333 C2.36745196,0.236833333 2.17442447,0.282048661 2.00374754,0.377598031" id="Fill-50" fill="url(#linearGradient-9)" mask="url(#mask-8)"></path>
                    </g>
                    <g id="Group-55" transform="translate(119.288660, 49.581075)">
                        <mask id="mask-11" fill="white">
                            <use xlink:href="#path-10"></use>
                        </mask>
                        <g id="Clip-54"></g>
                        <path d="M1.20909104,0.292073726 C0.979432931,0.44514314 0.916003548,0.755655379 1.06983803,0.985259499 L1.06983803,0.985259499 C1.22221437,1.21486362 1.53279962,1.27754919 1.76318681,1.12447978 L1.76318681,1.12447978 C1.99284492,0.97068146 2.05481616,0.660898123 1.90171075,0.431294003 L1.90171075,0.431294003 C1.80547307,0.286242511 1.64653507,0.20825 1.48540985,0.20825 L1.48540985,0.20825 C1.38990124,0.20825 1.29366356,0.235219373 1.20909104,0.292073726" id="Fill-53" fill="url(#linearGradient-12)" mask="url(#mask-11)"></path>
                    </g>
                    <g id="Group-90" transform="translate(77.783505, 34.608853)">
                        <path d="M28.7954278,15.8379611 C28.7954278,22.500711 23.1299021,27.8996556 16.141232,27.8996556 C9.15393299,27.8996556 3.48703608,22.500711 3.48703608,15.8379611 C3.48703608,9.1765182 9.15393299,3.77626667 16.141232,3.77626667 C23.1299021,3.77626667 28.7954278,9.1765182 28.7954278,15.8379611" id="Fill-56" fill="#111111"></path>
                        <path d="M32.0223918,15.6133994 C32.0223918,24.042936 24.9116907,30.8777667 16.1419175,30.8777667 C7.3707732,30.8777667 0.261443299,24.042936 0.261443299,15.6133994 C0.261443299,7.18386273 7.3707732,0.35035 16.1419175,0.35035 C24.9116907,0.35035 32.0223918,7.18386273 32.0223918,15.6133994 Z" id="Stroke-58" stroke="url(#linearGradient-13)" stroke-width="2.05033354"></path>
                        <polygon id="Stroke-60" fill="url(#linearGradient-14)" points="33.1029825 29.9119911 31.9635701 30.8445556 27.3620443 27.0783867 28.5014567 26.1469444"></polygon>
                        <path d="M54.4412557,49.7863735 L52.0650804,52.0430025 C51.446699,52.6319149 50.3401938,52.5107449 49.6477711,51.779816 L31.2759464,32.4199721 L33.7878639,30.0330528 L54.1642866,47.4880517 C54.9307505,48.146018 55.058266,49.198764 54.4412557,49.7863735 Z" id="Stroke-62" stroke="url(#linearGradient-15)" stroke-width="1.36688902"></path>
                        <path d="M12.7140825,11.3696972 L14.7707835,11.3696972" id="Stroke-64" stroke="#000000" stroke-width="0.683444512" stroke-linecap="round" stroke-linejoin="round"></path>
                        <path d="M16.3614361,11.3696972 L25.1161268,11.3696972" id="Stroke-66" stroke="#19CD98" stroke-width="1.02516677"></path>
                        <path d="M25.9112474,11.3696972 L27.9679485,11.3696972" id="Stroke-68" stroke="#000000" stroke-width="0.683444512" stroke-linecap="round" stroke-linejoin="round"></path>
                        <path d="M16.7417887,15.9713417 L18.7984897,15.9713417" id="Stroke-70" stroke="#000000" stroke-width="0.683444512" stroke-linecap="round" stroke-linejoin="round"></path>
                        <path d="M20.5765763,15.9713417 L25.0217928,15.9713417" id="Stroke-72" stroke="#19CD98" stroke-width="1.02516677"></path>
                        <path d="M25.9112474,15.9713417 L27.9679485,15.9713417" id="Stroke-74" stroke="#19CD98" stroke-width="1.02516677"></path>
                        <path d="M6.88676289,15.9713417 L8.94346392,15.9713417" id="Stroke-76" stroke="#19CD98" stroke-width="1.02516677"></path>
                        <path d="M10.764467,15.9713417 L15.316632,15.9713417" id="Stroke-78" stroke="#19CD98" stroke-width="1.02516677"></path>
                        <path d="M16.2276134,15.9713417 L18.2843144,15.9713417" id="Stroke-80" stroke="#000000" stroke-width="0.683444512" stroke-linecap="round" stroke-linejoin="round"></path>
                        <path d="M11.1715567,20.5744833 L13.2282577,20.5744833" id="Stroke-82" stroke="#19CD98" stroke-width="1.02516677"></path>
                        <path d="M15.051866,20.5744833 L25.0844536,20.5744833" id="Stroke-84" stroke="#19CD98" stroke-width="1.02516677"></path>
                        <path d="M25.9969433,20.5744833 L28.0536443,20.5744833" id="Stroke-86" stroke="#000000" stroke-width="0.683444512" stroke-linecap="round" stroke-linejoin="round"></path>
                        <path d="M28.7954278,15.8379611 C28.7954278,22.500711 23.1299021,27.8996556 16.141232,27.8996556 C9.15393299,27.8996556 3.48703608,22.500711 3.48703608,15.8379611 C3.48703608,9.1765182 9.15393299,3.77626667 16.141232,3.77626667 C23.1299021,3.77626667 28.7954278,9.1765182 28.7954278,15.8379611 Z" id="Stroke-88" stroke="url(#linearGradient-16)" stroke-width="2.05033354"></path>
                    </g>
                    <g id="Group-93" transform="translate(88.752577, 44.136631)">
                        <mask id="mask-19" fill="white">
                            <use xlink:href="#path-18"></use>
                        </mask>
                        <use id="Clip-92" fill="url(#linearGradient-17)" xlink:href="#path-18"></use>
                    </g>
                    <path d="M93.8955819,49.171922 C94.4376629,49.2879543 94.7883703,49.8532635 94.6792614,50.4334249 C94.5710183,51.0135863 94.0445243,51.3904592 93.5024433,51.2744269 C92.9612282,51.1574663 92.6105209,50.5921571 92.7187639,50.0119957 C92.8278728,49.4318343 93.3543669,49.0558897 93.8955819,49.171922" id="Fill-94" fill="url(#linearGradient-20)"></path>
                    <g id="Group-98" transform="translate(90.494845, 49.219964)">
                        <mask id="mask-22" fill="white">
                            <use xlink:href="#path-21"></use>
                        </mask>
                        <g id="Clip-97"></g>
                        <path d="M1.45065979,0.426922069 C0.899463918,0.638718766 0.748639175,1.06784416 1.11747423,1.3863295 L1.11747423,1.3863295 C1.48356701,1.70481483 2.22946392,1.79095602 2.78065979,1.57915933 L2.78065979,1.57915933 C3.33185567,1.36657234 3.48268041,0.93823723 3.11658763,0.618961612 L3.11658763,0.618961612 C2.88486598,0.419019207 2.50369072,0.31075 2.11428866,0.31075 L2.11428866,0.31075 C1.88668041,0.31075 1.65495876,0.348683737 1.45065979,0.426922069" id="Fill-96" mask="url(#mask-22)"></path>
                    </g>
                </g>
            </g>
        </g>
    </g>
</svg>