<?xml version="1.0" encoding="UTF-8"?>
<svg width="232px" height="41px" viewBox="0 0 232 41" version="1.1" xmlns="http://www.w3.org/2000/svg" xmlns:xlink="http://www.w3.org/1999/xlink">
    <!-- Generator: sketchtool 53.2 (72643) - https://sketchapp.com -->
    <title>3AF9FDDD-4908-4BED-9B20-BDC1445548E6</title>
    <desc>Created with sketchtool.</desc>
    <defs>
        <polygon id="path-1" points="0 39.948253 231.918684 39.948253 231.918684 0 0 0"></polygon>
    </defs>
    <g id="1st-April-Changes" stroke="none" stroke-width="1" fill="none" fill-rule="evenodd">
        <g id="Textile-Genesis/Final/3rd-April" transform="translate(-120.000000, -6531.000000)">
            <g id="Group-8" transform="translate(0.000000, 6481.000000)">
                <g id="Group-14" transform="translate(120.000000, 50.000000)">
                    <g id="Group-38">
                        <g id="Group-3" transform="translate(6.000000, 0.000000)">
                            <polygon id="Fill-1" fill="#FFFFFF" points="60.5426357 17.2975035 54.8538391 17.2975035 54.8538391 32.2970785 50.9175858 32.2970785 50.9175858 17.2975035 45.255814 17.2975035 45.255814 14.531121 60.5426357 14.531121"></polygon>
                            <path d="M62.5066919,25.2082936 L67.553919,25.2082936 C67.501036,23.8678804 66.6025801,22.8930423 65.1491765,22.8930423 C63.6429825,22.8930423 62.6123653,23.9165668 62.5066919,25.2082936 M71.2006256,25.183865 C71.2799039,25.768785 71.2799039,26.57305 71.2270208,27.084855 L62.5066919,27.084855 C62.5859701,28.6445277 64.0128859,29.8874827 66.3383502,29.8874827 C67.9767055,29.8874827 69.4301091,29.3025627 70.2227989,28.7664145 L70.4606336,28.7664145 L70.4606336,31.690929 C69.5886655,32.0321608 68.135262,32.3733072 66.2061889,32.3733072 C61.7139095,32.3733072 58.7279166,29.7411673 58.7279166,26.353705 C58.7279166,22.9905005 61.5025626,20.4559041 65.2284548,20.4559041 C68.7166049,20.4559041 70.8042344,22.5030387 71.2006256,25.183865" id="Fill-2" fill="#FFFFFF"></path>
                            <polygon id="Fill-4" fill="#FFFFFF" points="76.2214113 26.353978 71.5969705 20.7729139 75.9835765 20.7729139 78.5996659 24.0729918 81.1100819 20.7729139 85.0210184 20.7729139 80.5023438 26.2568568 85.2588532 32.0563159 80.9515254 32.0563159 78.1768795 28.537843 75.4815119 32.0563159 71.5969705 32.0563159"></polygon>
                            <path d="M87.7160434,20.5051119 L87.7160434,16.2029766 L91.3890526,16.2029766 L91.3890526,20.5051119 L94.6129728,20.5051119 L94.6129728,22.9421839 L91.3890526,22.9421839 L91.3890526,28.0648982 C91.3890526,29.308361 92.2611133,29.6813039 93.133174,29.6813039 C93.7410047,29.6813039 94.2430694,29.5570187 94.6129728,29.3580402 L94.8508075,29.3580402 L94.8508075,31.9443242 C94.2694646,32.0935362 93.556053,32.2675879 92.3932746,32.2675879 C89.7771851,32.2675879 87.7160434,30.9496063 87.7160434,27.9903794 L87.7160434,22.9421839 L85.73418,22.9421839 L85.73418,20.5051119 L87.7160434,20.5051119 Z" id="Fill-6" fill="#FFFFFF"></path>
                            <path d="M99.2374135,14.8822119 L99.3695748,14.8822119 C100.361942,14.8822119 101.166487,15.4626025 101.166487,16.1784867 C101.166487,16.8943709 100.361942,17.4747616 99.3695748,17.4747616 L99.2374135,17.4747616 C98.2450462,17.4747616 97.4405017,16.8943709 97.4405017,16.1784867 C97.4405017,15.4626025 98.2450462,14.8822119 99.2374135,14.8822119" id="Fill-8" fill="#FFFFFF"></path>
                            <mask id="mask-2" fill="white">
                                <use xlink:href="#path-1"></use>
                            </mask>
                            <g id="Clip-11"></g>
                            <polygon id="Fill-10" fill="#FFFFFF" mask="url(#mask-2)" points="97.4669062 32.0563252 101.140008 32.0563252 101.140008 20.7729232 97.4669062 20.7729232"></polygon>
                            <polygon id="Fill-12" fill="#FFFFFF" mask="url(#mask-2)" points="104.575182 32.0563252 108.248284 32.0563252 108.248284 13.5085736 104.575182 13.5085736"></polygon>
                            <path d="M114.643251,25.2082936 L119.690385,25.2082936 C119.637595,23.8678804 118.739139,22.8930423 117.285735,22.8930423 C115.779541,22.8930423 114.748924,23.9165668 114.643251,25.2082936 M123.337092,25.183865 C123.416463,25.768785 123.416463,26.57305 123.363487,27.084855 L114.643251,27.084855 C114.722436,28.6445277 116.149445,29.8874827 118.474909,29.8874827 C120.113264,29.8874827 121.566668,29.3025627 122.359358,28.7664145 L122.597192,28.7664145 L122.597192,31.690929 C121.725224,32.0321608 120.271728,32.3733072 118.342748,32.3733072 C113.850468,32.3733072 110.864383,29.7411673 110.864383,26.353705 C110.864383,22.9905005 113.639029,20.4559041 117.365014,20.4559041 C120.853164,20.4559041 122.940793,22.5030387 123.337092,25.183865" id="Fill-13" fill="#FFFFFF" mask="url(#mask-2)"></path>
                            <path d="M147.119472,18.8275102 C146.168226,18.1512463 144.582661,17.0993681 142.072338,17.0993681 C138.399236,17.0993681 135.835937,19.7291076 135.835937,23.3107429 C135.835937,27.0175537 138.504817,29.547223 142.389451,29.547223 C143.472858,29.547223 144.344826,29.447065 145.111121,29.1965384 L145.111121,22.6846019 L148.969267,22.6846019 L148.969267,31.2754528 C147.066682,32.001664 144.926169,32.4525944 142.415846,32.4525944 C136.470163,32.4525944 131.687166,28.6706431 131.687166,23.3608657 C131.687166,17.9509304 136.390884,14.1689791 142.125128,14.1689791 C145.718952,14.1689791 147.753791,15.1958398 149.02215,15.9221387 L147.119472,18.8275102 Z" id="Fill-14" fill="#FFFFFF" mask="url(#mask-2)"></path>
                            <path d="M155.152451,25.2082936 L160.199678,25.2082936 C160.146888,23.8678804 159.248432,22.8930423 157.795029,22.8930423 C156.288834,22.8930423 155.258217,23.9165668 155.152451,25.2082936 M163.846385,25.183865 C163.925663,25.768785 163.925663,26.57305 163.87278,27.084855 L155.152451,27.084855 C155.23173,28.6445277 156.658738,29.8874827 158.98411,29.8874827 C160.622557,29.8874827 162.075868,29.3025627 162.868651,28.7664145 L163.106486,28.7664145 L163.106486,31.690929 C162.234425,32.0321608 160.781021,32.3733072 158.851948,32.3733072 C154.359669,32.3733072 151.373676,29.7411673 151.373676,26.353705 C151.373676,22.9905005 154.148322,20.4559041 157.874307,20.4559041 C161.362457,20.4559041 163.449994,22.5030387 163.846385,25.183865" id="Fill-15" fill="#FFFFFF" mask="url(#mask-2)"></path>
                            <path d="M166.382983,20.747756 L169.527625,20.747756 L169.527625,22.2068838 C170.346803,21.5016543 172.011553,20.4559134 174.072695,20.4559134 C176.688784,20.4559134 178.723623,21.988087 178.723623,24.7118377 L178.723623,32.0563159 L175.050522,32.0563159 L175.050522,25.0279721 C175.050522,23.5201755 173.993509,22.9851591 172.751545,22.9851591 C171.747323,22.9851591 170.63752,23.4715066 170.056085,23.9336476 L170.056085,32.0563159 L166.382983,32.0563159 L166.382983,20.747756 Z" id="Fill-16" fill="#FFFFFF" mask="url(#mask-2)"></path>
                            <path d="M184.774785,25.2082936 L189.822013,25.2082936 C189.769222,23.8678804 188.870766,22.8930423 187.417363,22.8930423 C185.911169,22.8930423 184.880552,23.9165668 184.774785,25.2082936 M193.468719,25.183865 C193.547997,25.768785 193.547997,26.57305 193.495114,27.084855 L184.774785,27.084855 C184.854064,28.6445277 186.281072,29.8874827 188.606444,29.8874827 C190.244892,29.8874827 191.698203,29.3025627 192.490985,28.7664145 L192.72882,28.7664145 L192.72882,31.690929 C191.856759,32.0321608 190.403356,32.3733072 188.474282,32.3733072 C183.982003,32.3733072 180.99601,29.7411673 180.99601,26.353705 C180.99601,22.9905005 183.770656,20.4559041 187.496641,20.4559041 C190.984791,20.4559041 193.072328,22.5030387 193.468719,25.183865" id="Fill-17" fill="#FFFFFF" mask="url(#mask-2)"></path>
                            <path d="M205.016447,23.7703368 C203.98583,23.3073036 202.241802,22.8199273 200.841281,22.8199273 C199.572922,22.8199273 198.727256,23.1854168 198.727256,23.8191086 C198.727256,24.5502586 199.704898,24.6477168 200.973442,24.8670618 C204.302943,25.4275532 206.12625,26.3292764 206.12625,28.6932995 C206.12625,31.0573227 203.589532,32.3733072 200.471285,32.3733072 C198.304377,32.3733072 196.613231,31.9833036 195.371175,31.4472408 L196.42828,28.9857595 C197.538083,29.5219077 199.282204,29.9849409 200.70912,29.9849409 C201.84541,29.9849409 202.876027,29.7411673 202.876027,29.0345313 C202.876027,28.3521531 202.05685,28.2546095 200.418495,27.9134631 C197.511687,27.3284577 195.450546,26.5486214 195.450546,24.1359118 C195.450546,21.8694323 197.775917,20.4559041 201.052628,20.4559041 C203.245931,20.4559041 204.72573,20.8215645 205.888508,21.2358259 L205.016447,23.7703368 Z" id="Fill-18" fill="#FFFFFF" mask="url(#mask-2)"></path>
                            <path d="M210.592005,14.8822119 L210.724166,14.8822119 C211.716533,14.8822119 212.521078,15.4626025 212.521078,16.1784867 C212.521078,16.8943709 211.716533,17.4747616 210.724166,17.4747616 L210.592005,17.4747616 C209.599638,17.4747616 208.795093,16.8943709 208.795093,16.1784867 C208.795093,15.4626025 209.599638,14.8822119 210.592005,14.8822119" id="Fill-19" fill="#FFFFFF" mask="url(#mask-2)"></path>
                            <polygon id="Fill-20" fill="#FFFFFF" mask="url(#mask-2)" points="208.821535 32.0563252 212.494636 32.0563252 212.494636 20.7729232 208.821535 20.7729232"></polygon>
                            <path d="M224.80878,23.7703368 C223.778162,23.3073036 222.034134,22.8199273 220.633613,22.8199273 C219.365254,22.8199273 218.519588,23.1854168 218.519588,23.8191086 C218.519588,24.5502586 219.49723,24.6477168 220.765774,24.8670618 C224.095275,25.4275532 225.918582,26.3292764 225.918582,28.6932995 C225.918582,31.0573227 223.381864,32.3733072 220.263617,32.3733072 C218.096709,32.3733072 216.405564,31.9833036 215.163507,31.4472408 L216.220612,28.9857595 C217.330415,29.5219077 219.074536,29.9849409 220.501452,29.9849409 C221.637742,29.9849409 222.66836,29.7411673 222.66836,29.0345313 C222.66836,28.3521531 221.849182,28.2546095 220.210827,27.9134631 C217.304019,27.3284577 215.242878,26.5486214 215.242878,24.1359118 C215.242878,21.8694323 217.568249,20.4559041 220.84496,20.4559041 C223.038263,20.4559041 224.518062,20.8215645 225.68084,21.2358259 L224.80878,23.7703368 Z" id="Fill-21" fill="#FFFFFF" mask="url(#mask-2)"></path>
                        </g>
                        <g id="Group-37" transform="translate(0.000000, 0.298797)" fill="#FFFFFF">
                            <path d="M16.0209846,17.0825868 C16.5334221,17.0825868 17.0459523,16.9040107 17.4370644,16.5466047 C18.2190109,15.8320467 18.2190109,14.6732489 17.4370644,13.9586062 L9.79069637,6.97120481 C9.00856463,6.25656209 7.74057581,6.25656209 6.95853669,6.97120481 C6.17649756,7.68584753 6.17649756,8.84464526 6.95853669,9.55920335 L14.6049048,16.5466047 C14.9959243,16.9040107 15.5085471,17.0825868 16.0209846,17.0825868" id="Fill-22"></path>
                            <path d="M32.5881741,33.6440337 C33.1007042,33.6440337 33.6131417,33.4654576 34.0041613,33.1081361 C34.7862004,32.3934931 34.786293,31.2347796 34.0042539,30.5201366 L26.3578858,23.532648 C25.5758467,22.818005 24.3079505,22.8179203 23.5258188,23.5325633 C22.7438723,24.2472063 22.7437796,25.4058352 23.5257261,26.1204782 L31.1720942,33.1080515 C31.5632064,33.465373 32.0757365,33.6440337 32.5881741,33.6440337" id="Fill-23"></path>
                            <path d="M18.5697894,10.7129676 C19.0824121,10.7129676 19.594757,10.5343068 19.9858692,10.1769007 L27.6322373,3.18941206 C28.4142764,2.47476908 28.4141838,1.31614018 27.6321447,0.601497195 C26.8501982,-0.113061155 25.582302,-0.113145788 24.8000776,0.601581829 L17.1537095,7.58907046 C16.371763,8.30371344 16.3718556,9.46234235 17.1538022,10.1769853 C17.5448217,10.5342222 18.0573519,10.7129676 18.5697894,10.7129676" id="Fill-24"></path>
                            <path d="M2.00259992,27.2743312 C2.51513006,27.2743312 3.02747497,27.0956704 3.41867976,26.7382642 L11.0650478,19.750775 C11.8469943,19.0361319 11.8469017,17.8775029 11.0649552,17.1627752 C10.2830087,16.4483014 9.01501988,16.4482168 8.23288814,17.1629445 L0.58652008,24.1504338 C-0.195519042,24.8650768 -0.195426427,26.0237058 0.586612695,26.7383489 C0.977539641,27.0955858 1.49006978,27.2743312 2.00259992,27.2743312" id="Fill-25"></path>
                            <path d="M31.3138133,23.4523356 C31.8262509,23.4523356 32.3388736,23.2737595 32.7298932,22.9163536 L40.3762612,15.9289522 C41.1583004,15.2143941 41.1583004,14.0555963 40.3762612,13.3409536 C39.5942221,12.6263109 38.3262333,12.6263109 37.5441016,13.3409536 L29.8977335,20.328355 C29.115787,21.0429977 29.115787,22.2017955 29.8977335,22.9163536 C30.2888457,23.2737595 30.8013758,23.4523356 31.3138133,23.4523356" id="Fill-26"></path>
                            <path d="M14.7466239,40.0138381 C15.259154,40.0138381 15.7714989,39.8351774 16.1627037,39.4777714 L23.8090718,32.4902854 C24.5910183,31.7756427 24.5909257,30.6170142 23.8089792,29.9022868 C23.0270327,29.187898 21.7590438,29.1878134 20.9769121,29.9023715 L13.330544,36.8899421 C12.5485049,37.6045848 12.5485975,38.7632133 13.3306366,39.477856 C13.7215636,39.8350928 14.2340937,40.0138381 14.7466239,40.0138381" id="Fill-27"></path>
                            <path d="M18.5697894,23.4523356 C19.0822269,23.4523356 19.5948497,23.2819507 19.9858692,22.9409387 L23.8090069,19.6075323 C24.5910461,18.9256698 24.5910461,17.8201062 23.8090069,17.1382437 C23.0269678,16.4563812 21.758979,16.4563812 20.9769399,17.1382437 L17.1537095,20.4716501 C16.371763,21.1535126 16.371763,22.259157 17.1537095,22.9409387 C17.5448217,23.2819507 18.0573519,23.4523356 18.5697894,23.4523356" id="Fill-28"></path>
                            <path d="M28.7650085,17.0825868 C29.2774461,17.0825868 29.7899762,16.9122019 30.1810884,16.5711899 C30.9630349,15.8894082 30.9630349,14.7837638 30.1810884,14.1019013 L26.357858,10.7684949 C25.5758189,10.0866324 24.3078301,10.0866324 23.525791,10.7684949 C22.7437519,11.4503574 22.7437519,12.555921 23.525791,13.2377835 L27.3489287,16.5711899 C27.7399483,16.9122019 28.252571,17.0825868 28.7650085,17.0825868" id="Fill-29"></path>
                            <path d="M38.9601907,27.2743312 C39.4727208,27.2743312 39.9851583,27.1159222 40.3761779,26.7991043 C41.158217,26.1654684 41.1583096,25.1381738 40.3762705,24.504538 L39.1018913,23.4719156 C38.3198521,22.8382797 37.0519559,22.8382047 36.2699168,23.4718406 C35.4878777,24.1054764 35.4877851,25.132771 36.2698242,25.7664069 L37.5441108,26.7990292 C37.935223,27.1158472 38.4477531,27.2743312 38.9601907,27.2743312" id="Fill-30"></path>
                            <path d="M16.0209846,29.82214 C16.5334221,29.82214 17.0459523,29.6517549 17.4370644,29.3107424 C18.2190109,28.6289598 18.2190109,27.523314 17.4370644,26.8414506 L13.6138341,23.5080398 C12.831795,22.8260957 11.5638061,22.8260957 10.781767,23.5080398 C9.9997279,24.1898225 9.9997279,25.2953876 10.781767,25.9773317 L14.6049048,29.3107424 C14.9959243,29.6517549 15.5085471,29.82214 16.0209846,29.82214" id="Fill-31"></path>
                            <path d="M26.2161574,40.0138381 C26.7286876,40.0138381 27.2411251,39.8554291 27.6321447,39.5386112 C28.4141838,38.9049753 28.4142764,37.8776807 27.6322373,37.2440449 L26.357858,36.2114225 C25.5758189,35.5777866 24.3079227,35.5777116 23.5258836,36.2113475 C22.7438445,36.8449833 22.7437519,37.8722779 23.525791,38.5059138 L24.8000776,39.5385361 C25.1911898,39.8553541 25.7037199,40.0138381 26.2161574,40.0138381" id="Fill-32"></path>
                            <path d="M16.0209846,4.34320949 C16.5334221,4.34320949 17.0458596,4.18480052 17.4369718,3.86798258 C18.2189183,3.23434671 18.2190109,2.20705217 17.4370644,1.57341629 L16.1626852,0.540793925 C15.3805535,-0.0928419493 14.1127499,-0.0929169891 13.3307107,0.540718885 C12.548579,1.17435476 12.5484864,2.2016493 13.3305255,2.83528518 L14.6049048,3.86790754 C14.9959243,4.18472548 15.5085471,4.34320949 16.0209846,4.34320949" id="Fill-33"></path>
                            <path d="M31.3138133,10.7129676 C31.8264361,10.7129676 32.3388736,10.5545588 32.7298932,10.2376664 L34.0042724,9.20504557 C34.7863115,8.57141067 34.7862189,7.54411771 34.0040872,6.91048281 C33.2220481,6.27699799 31.9540592,6.27684791 31.1721127,6.91055785 L29.8977335,7.94317863 C29.115787,8.57681353 29.1158796,9.60410649 29.8978261,10.2377414 C30.2889383,10.5544838 30.8013758,10.7129676 31.3138133,10.7129676" id="Fill-34"></path>
                            <path d="M8.37460727,33.6440337 C8.88713741,33.6440337 9.39957493,33.4857007 9.79068711,33.1688097 L11.0649737,32.1361187 C11.8470129,31.5025617 11.8469202,30.4751985 11.0648811,29.8415665 C10.2827494,29.2081596 9.01485317,29.2080846 8.23290667,29.8416415 L6.95852743,30.8742575 C6.1764883,31.5078895 6.17658092,32.5352528 6.95862004,33.1688848 C7.3496396,33.4856257 7.86207713,33.6440337 8.37460727,33.6440337" id="Fill-35"></path>
                            <path d="M3.27695138,17.0825868 C3.7893889,17.0825868 4.30191904,16.9242538 4.69303122,16.6073628 C5.47488511,15.9738059 5.47488511,14.9463676 4.69303122,14.3127356 L3.41865198,13.2802696 C2.63652024,12.6466377 1.36862403,12.6466377 0.586492295,13.2802696 C-0.195546826,13.9138266 -0.195546826,14.9412649 0.586492295,15.5748969 L1.86087154,16.6073628 C2.2518911,16.9242538 2.76451385,17.0825868 3.27695138,17.0825868" id="Fill-36"></path>
                        </g>
                    </g>
                </g>
            </g>
        </g>
    </g>
</svg>